<?xml version="1.0" encoding="utf-8"?>
<!-- Generator: Adobe Illustrator 23.0.0, SVG Export Plug-In . SVG Version: 6.00 Build 0)  -->
<svg version="1.1" id="Capa_1" xmlns="http://www.w3.org/2000/svg" xmlns:xlink="http://www.w3.org/1999/xlink" x="0px" y="0px"
	 viewBox="0 0 30.4 26" style="enable-background:new 0 0 30.4 26;" xml:space="preserve">
<style type="text/css">
	.st0{fill:#071EB3;}
</style>
<g>
	<path class="st0" d="M11.6,0.6c0.2-0.1,0.4-0.1,0.6-0.2c1.1-0.2,2.2-0.3,3.3-0.3c0.5,0,0.9,0.1,1.2,0.1c0.2,0,0.3,0.1,0.5,0.1
		c0.1,0,0.3,0.1,0.4,0.1c0.1,0,0.2,0.1,0.3,0.1c0.1,0,0.2,0,0.2,0.1l0.2,0.1c0,0-0.1,0-0.2,0c-0.1,0-0.2,0-0.2-0.1
		c-0.1,0-0.2,0-0.3-0.1c-0.5-0.1-1.2-0.2-2.1-0.2c-1,0-2.1,0.1-3.1,0.3c0.7,0,1.5,0.2,2.4,0.8c0.2,0.1,0.3,0.3,0.5,0.4
		c0.5,0.3,1,0.5,1.5,0.7c0.7,0.3,1.5,0.4,2.3,0.5c0.3,0,0.5,0,0.8,0c0.2,0,0.4,0,0.6,0c0.1,0,0.3-0.1,0.4-0.1c0.3,0,0.6,0.1,0.7,0.4
		c0,0,0.1,0.3-0.2,0.6l-0.2,0.1c0,0-1.5,0.6-3.2,2.2c-0.1,0.1-0.2,0.2-0.3,0.3c-0.3,0.3-1.1,1.2-1.5,1.9c0,0-1,1.5-1.6,3.1
		c0,0-1.8,5.4,1.4,10.6c1.3,2.2,4.4,2.8,6.4,1.3c0.1-0.1,0.2-0.1,0.3-0.2c0.7-0.5,1.3-1.1,1.9-1.8c0.1-0.2,0.3-0.3,0.4-0.5l0.1-0.1
		l0-0.1l0-0.1c0.1-0.1,0.1-0.2,0.2-0.3c0.2-0.3,0.4-0.7,0.6-1c0.4-0.7,0.7-1.4,0.9-2.1c0.1-0.2,0.1-0.3,0.2-0.5l0.1-0.2
		c0-0.1,0-0.2,0.1-0.2c0-0.2,0.1-0.3,0.1-0.5c0-0.2,0.1-0.3,0.1-0.5c0.2-1.1,0.2-2.2,0.1-3.3c-0.1-0.9-0.2-1.6-0.4-2.1
		c-0.1-0.5-0.2-0.8-0.2-0.8l0.2,0.7c0,0.1,0.1,0.3,0.1,0.4c0,0.1,0.1,0.3,0.1,0.5c0,0.2,0.1,0.4,0.1,0.6c0,0.2,0.1,0.4,0.1,0.7
		c0.1,0.9,0.1,2.1-0.1,3.4l-0.1,0.5L27.5,16l-0.1,0.3c0,0.1,0,0.2-0.1,0.3c-0.1,0.2-0.1,0.3-0.2,0.5c-0.2,0.7-0.6,1.4-0.9,2.1
		c-0.2,0.3-0.4,0.7-0.6,1c-0.1,0.1-0.1,0.2-0.2,0.3l0,0.1l0,0.1l-0.1,0.1c-0.1,0.2-0.3,0.3-0.4,0.5c-0.6,0.7-1.2,1.3-1.9,1.9
		c-0.7,0.6-1.5,1.1-2.4,1.5c-1.8,0.9-3.8,1.3-5.9,1.3c-1.1,0-2.1-0.2-3.1-0.4c-1-0.3-2-0.7-3-1.2c-0.2-0.1-0.5-0.3-0.7-0.4
		c-0.1-0.1-0.2-0.2-0.3-0.2c-0.1-0.1-0.2-0.1-0.3-0.2L7,23.2l-0.2-0.1L6.7,23l-0.3-0.3h0c-0.7-0.7-1.4-1.4-2-2.2
		c-0.1-0.2-0.3-0.4-0.4-0.6c-0.3-0.5-0.5-0.9-0.8-1.4l-0.2-0.4C3,18.1,3,18,3,18l-0.1-0.2l-0.1-0.4l-0.1-0.4c-0.3-1-0.5-2-0.6-3.1
		c-0.1-1,0-2.1,0.1-3.1C2.5,9,3.2,7.1,4.4,5.6c0.5-0.7,1.1-1.4,1.8-2C6.7,3,7.4,2.5,8.1,2c0.7-0.4,1.4-0.8,2.1-1
		c0.3-0.1,0.5-0.2,0.7-0.3l0.3-0.1C11.3,0.6,11.4,0.6,11.6,0.6z M5.4,21.1c0.2,0.2,0.3,0.4,0.5,0.6c-0.8-8.5,5.9-13,6.4-13.3
		C11.8,8.6,4.4,12.4,5.4,21.1L5.4,21.1z M13.3,6c0.3-0.6,0.1-1.3-0.4-1.7c-0.6-0.3-1.3-0.2-1.6,0.4c-0.3,0.6-0.1,1.3,0.5,1.7
		C12.2,6.7,12.9,6.5,13.3,6L13.3,6z"/>
</g>
</svg>
